<svg xmlns="http://www.w3.org/2000/svg" width="34" height="34" viewBox="0 0 34 34">
  <g id="clock" transform="translate(-136 -392)" opacity="0.85">
    <rect id="Rectangle_8" data-name="Rectangle 8" width="34" height="34" transform="translate(136 392)" fill="none"/>
    <g id="Group_4" data-name="Group 4" transform="translate(135.521 391.521)">
      <g id="Group_3" data-name="Group 3" transform="translate(6.479 6.479)">
        <path id="Path_33" data-name="Path 33" d="M17.479,6.479a11,11,0,1,0,11,11A11.013,11.013,0,0,0,17.479,6.479Zm0,20.483a9.483,9.483,0,1,1,9.483-9.483A9.494,9.494,0,0,1,17.479,26.962Z" transform="translate(-6.479 -6.479)" fill="#fff"/>
        <path id="Path_34" data-name="Path 34" d="M48.517,28.6V23.132a.758.758,0,1,0-1.517,0v6.224a.758.758,0,0,0,.758.758h6.316a.758.758,0,1,0,0-1.517Z" transform="translate(-36.758 -18.357)" fill="#fff"/>
      </g>
    </g>
  </g>
</svg>
