<svg xmlns="http://www.w3.org/2000/svg" width="34" height="34" viewBox="0 0 34 34">
  <g id="map" transform="translate(-238 -224)" opacity="0.85">
    <g id="Group_2" data-name="Group 2" transform="translate(236.316 222.181)">
      <path id="Path_31" data-name="Path 31" d="M9.153,28.241a1.909,1.909,0,0,0,.587-.26l4.411-2.521,4.642,2.654,2.781-1.589c.7.932,1.32,1.642,1.474,1.816l.364.412.363-.414c.155-.176.778-.9,1.481-1.842l2.177,1.244a3.392,3.392,0,0,0,.86.472c.22.043.39-.053.39-.477V12.169c0-.259-.565-.537-.611-.563L23.195,8.819l-4.645,2.654L13.907,8.819,9.074,11.581a.468.468,0,0,0-.39.461v15.73A.469.469,0,0,0,9.153,28.241ZM23.918,10.313,27.2,12.191c.044.025.494.27.541.28v14.37l-1.939-1.108c.941-1.36,1.848-2.961,1.846-4.085a4.247,4.247,0,0,0-3.734-4.21V10.313Zm-.526,8.058H23.4a3.286,3.286,0,0,1,3.286,3.279c0,1.4-2.107,4.223-3.274,5.627-1.173-1.4-3.294-4.218-3.3-5.613A3.289,3.289,0,0,1,23.392,18.37Zm-4.239-6.162,3.828-2.187v7.4a4.256,4.256,0,0,0-3.828,4.071Zm0,14.549V21.832a9.533,9.533,0,0,0,1.868,3.929l-1.875,1.071A.484.484,0,0,0,19.153,26.757ZM14.387,10.174l3.828,2.188V26.7l-3.828-2.188ZM9.622,12.348l3.828-2.188V24.78L9.622,26.968V12.348Z" fill="#fff"/>
      <path id="Path_32" data-name="Path 32" d="M63.086,57h0a1.535,1.535,0,0,0,0-3.07h0a1.535,1.535,0,0,0,0,3.07Zm0-2.3h0a.76.76,0,0,1,0,1.521h0a.76.76,0,0,1,0-1.521Z" transform="translate(-42.63 -36.376)" fill="#fff"/>
    </g>
    <rect id="Rectangle_7" data-name="Rectangle 7" width="34" height="34" transform="translate(238 224)" fill="none"/>
  </g>
</svg>
