<svg xmlns="http://www.w3.org/2000/svg" width="34" height="34" viewBox="0 0 34 34">
  <g id="pulse" transform="translate(-259 -392)" opacity="0.8">
    <rect id="Rectangle_9" data-name="Rectangle 9" width="34" height="34" transform="translate(259 392)" fill="none"/>
    <g id="Group_6" data-name="Group 6" transform="translate(255.001 382.673)">
      <path id="Path_35" data-name="Path 35" d="M20.778,35.3l.084-.084.083.083,8.623-8.623a5.5,5.5,0,0,0,.462-.534H32V24.764H30.8a5.481,5.481,0,0,0-1.235-5.836h0a5.483,5.483,0,0,0-7.745,0l-.962.962-.962-.962a5.476,5.476,0,0,0-8.666,6.518H10v1.375h2.3Zm.167-1.944-.084-.084-.083.083-6.53-6.53h1.621l.4-.882.644-1.408.663,1.367,1.668,3.442,1.617-3.2h7.3ZM13.127,19.9a4.106,4.106,0,0,1,5.8,0l1.935,1.935L22.8,19.9a4.1,4.1,0,0,1,6.5,4.864H20.017l-.543,1.076-.2.4-.188-.388-2.2-4.547-1.894,4.141H12.9A4.105,4.105,0,0,1,13.127,19.9Z" transform="translate(0)" fill="#fff"/>
    </g>
  </g>
</svg>
