<svg xmlns="http://www.w3.org/2000/svg" width="34.176" height="34" viewBox="0 0 34.176 34">
  <g id="sneaker" transform="translate(-136 -216)" opacity="0.85">
    <g id="Group_1" data-name="Group 1" transform="translate(131 196.201)">
      <path id="Path_27" data-name="Path 27" d="M52.262,39.806a7.379,7.379,0,0,0-2.707-3.6L39.613,29.15a1.887,1.887,0,0,0-2.264.053l-2.276,1.788a1.8,1.8,0,0,1-2.411-.187l-.6-.646a2.8,2.8,0,0,0-1.285-.815c-.182-.051-.51-.136-1.529.415l.066-.166-.518.424c-.317.192-.687.434-1.119.737a.556.556,0,0,0-.16.178l-.18.125-.217.153v.211a.562.562,0,0,0-.055.231l.027,13.229H52.761V41.233ZM47.5,36.144l-1.8,2.294a.679.679,0,0,1-.944.115.675.675,0,0,1-.116-.95l1.754-2.24Zm-2.339-1.659-1.708,2.188a.677.677,0,1,1-1.066-.833L44.063,33.7Zm-2.334-1.656L41.2,34.91a.675.675,0,0,1-1.06-.835l1.59-2.029ZM30.507,30.451a1.729,1.729,0,0,1,.723.487l.6.642a2.947,2.947,0,0,0,3.945.306L38.05,30.1a.753.753,0,0,1,.9-.021l2.354,1.67-1.574,2.01a1.19,1.19,0,0,0,.934,1.921,1.29,1.29,0,0,0,.143-.008,1.175,1.175,0,0,0,.793-.444l1.646-2.1.392.278-1.658,2.119a1.2,1.2,0,0,0,.206,1.671,1.188,1.188,0,0,0,.729.248,1.2,1.2,0,0,0,.942-.452l1.723-2.208.4.282-1.739,2.221a1.187,1.187,0,0,0,.93,1.922,1.307,1.307,0,0,0,.148-.009,1.179,1.179,0,0,0,.791-.445l1.811-2.312.972.69a6.247,6.247,0,0,1,2.292,3.052l.264.745h-17.4A7.593,7.593,0,0,0,28.2,33.972l0-2.133.077-.066a.567.567,0,0,0,.238-.218A6.236,6.236,0,0,1,30.507,30.451ZM28.2,34.5a7.073,7.073,0,0,1,5.328,6.424H28.218Zm.019,9.239,0-2.3H51.607l.016,2.3Z" transform="translate(-13.585)" fill="#333a58"/>
      <path id="Path_28" data-name="Path 28" d="M12.28,62.9H5.745a.569.569,0,0,0,0,1.138H12.28a.569.569,0,0,0,0-1.138Z" transform="translate(0 -21.171)" fill="#333a58"/>
      <path id="Path_29" data-name="Path 29" d="M15.336,55.74H10.668a.569.569,0,1,0,0,1.138h4.668a.569.569,0,1,0,0-1.138Z" transform="translate(-3.056 -16.723)" fill="#333a58"/>
      <path id="Path_30" data-name="Path 30" d="M18.391,48.575h-2.8a.569.569,0,0,0,0,1.138h2.8a.569.569,0,0,0,0-1.138Z" transform="translate(-6.111 -12.276)" fill="#333a58"/>
    </g>
    <rect id="Rectangle_6" data-name="Rectangle 6" width="34" height="34" transform="translate(136 216)" fill="none"/>
  </g>
</svg>
