<svg xmlns="http://www.w3.org/2000/svg" width="180" height="350.611" viewBox="0 0 180 350.611">
  <g id="walking-woman" transform="translate(-454.682 -157.994)">
    <circle id="Ellipse_1" data-name="Ellipse 1" cx="20.556" cy="20.556" r="20.556" transform="translate(527.188 177.183)" fill="#2f2e41"/>
    <path id="Path_6" data-name="Path 6" d="M780.908,308.717a20.556,20.556,0,0,1-29.038,29.038,20.556,20.556,0,1,0,29.038-29.038Z" transform="translate(-219.33 -126.182)" opacity="0.1"/>
    <circle id="Ellipse_2" data-name="Ellipse 2" cx="14.389" cy="14.389" r="14.389" transform="translate(554.596 161.424)" fill="#2f2e41"/>
    <path id="Path_7" data-name="Path 7" d="M798.449,310.767a14.379,14.379,0,0,1-14.337-13.361c-.024.341-.052.681-.052,1.028a14.389,14.389,0,0,0,28.778,0c0-.347-.028-.687-.052-1.028A14.379,14.379,0,0,1,798.449,310.767Z" transform="translate(-229.464 -122.621)" opacity="0.1"/>
    <path id="Path_8" data-name="Path 8" d="M782.115,287.978a14.339,14.339,0,0,1,17.991-13.916,14.383,14.383,0,1,0-9.26,27.147,14.391,14.391,0,0,1-8.732-13.231Z" transform="translate(-228.204 -114.906)" fill="#2f2e41"/>
    <path id="Path_9" data-name="Path 9" d="M800.708,304.74a14.339,14.339,0,0,1,12.921-18.719,14.383,14.383,0,1,0-.587,28.677,14.391,14.391,0,0,1-12.334-9.958Z" transform="translate(-233.808 -119.016)" fill="#2f2e41"/>
    <path id="Path_10" data-name="Path 10" d="M805.781,304.6a14.339,14.339,0,0,1,2.012-22.656,14.383,14.383,0,1,0,13.629,25.238A14.391,14.391,0,0,1,805.78,304.6Z" transform="translate(-234.25 -117.753)" fill="#2f2e41"/>
    <path id="Path_11" data-name="Path 11" d="M785.023,361.758s-21.926,15.074-20.556,8.222c.767-3.851-2.145-12.039-4.844-18.466-2.1-5-4.063-8.942-4.063-8.942l23.982-6.167a38.063,38.063,0,0,0,.089,11,35.21,35.21,0,0,0,5.392,14.355Z" transform="translate(-220.492 -134.898)" fill="#ffc1c7"/>
    <path id="Path_12" data-name="Path 12" d="M566.37,351.241,565,362.889l19.185-2.056,3.426-12.334Z" transform="translate(-34.728 -59.972)" fill="#ffc1c7"/>
    <path id="Path_13" data-name="Path 13" d="M711.325,410.567l-4.111,4.8s-11.648.685-5.482-14.389,21.241-41.112,21.241-41.112,9.593-23.3,13.019-14.389-6.852,20.556-6.852,20.556-13.019,23.3-11.648,33.575Z" transform="translate(-202.98 -137.114)" fill="#ffc1c7"/>
    <path id="Path_14" data-name="Path 14" d="M711.325,410.567l-4.111,4.8s-11.648.685-5.482-14.389,21.241-41.112,21.241-41.112,9.593-23.3,13.019-14.389-6.852,20.556-6.852,20.556-13.019,23.3-11.648,33.575Z" transform="translate(-202.98 -137.114)" opacity="0.1"/>
    <path id="Path_15" data-name="Path 15" d="M812.56,671.628s30.834,32.889,34.26,42.482-5.482,24.667-8.908,25.352-4.111,4.8,0,5.482,17.815-5.482,21.926-12.334,6.852-11.648,8.908-13.019,3.426-7.537,0-10.963-31.519-29.463-34.945-45.223Z" transform="translate(-238.436 -237.839)" fill="#ffc1c7"/>
    <path id="Path_16" data-name="Path 16" d="M873.111,725.355s-1.37,13.7-13.7,7.537c0,0-5.482-6.167-5.482,1.37s-2.741,20.556-11.648,25.352,6.167,6.852,8.222,6.167,15.76-5.482,17.815-9.593,9.593-13.7,12.333-17.13S879.963,723.984,873.111,725.355Z" transform="translate(-246.912 -257.306)" fill="#2f2e41"/>
    <path id="Path_17" data-name="Path 17" d="M783.912,512.406s9.593,4.111,6.167,32.2c0,0-2.741,8.908,4.8,18.5s28.093,40.427,28.093,53.445c0,0-19.871,13.7-27.408,13.019s-37-51.39-37-51.39Z" transform="translate(-221.436 -190.304)" fill="#2f2e41"/>
    <path id="Path_18" data-name="Path 18" d="M783.912,512.406s9.593,4.111,6.167,32.2c0,0-2.741,8.908,4.8,18.5s28.093,40.427,28.093,53.445c0,0-19.871,13.7-27.408,13.019s-37-51.39-37-51.39Z" transform="translate(-221.436 -190.304)" opacity="0.1"/>
    <path id="Path_19" data-name="Path 19" d="M673.809,665.406s1.37,49.334-6.852,54.816c0,0-10.963,15.76-17.815,15.76s-6.167,5.482-2.741,6.167,4.111,2.741,17.815-2.741,20.556-6.852,22.612-6.852,4.111-2.741,0-10.963,11.648-50.019,11.648-50.019Z" transform="translate(-185.334 -238.469)" fill="#ffc1c7"/>
    <path id="Path_20" data-name="Path 20" d="M686.424,739.3s-6.852,3.426-11.648,4.111-7.494-4.166-6.488-5.852-3.1-.315-5.846,5.852c0,0-11.648,13.7-18.5,14.389s-6.905,9.962-3.426,10.278c3.769.343,10.278,2.741,18.5,0S674.775,757.8,678.2,757.8s15.074-5.482,11.648-8.222S686.424,739.3,686.424,739.3Z" transform="translate(-183.56 -260.974)" fill="#2f2e41"/>
    <path id="Path_21" data-name="Path 21" d="M752.357,388.013s-28.778,21.511-32.889,23.566-8.908,17.815-8.908,17.815,24.667-6.852,28.778-11.648S752.357,388.013,752.357,388.013Z" transform="translate(-206.326 -151.144)" fill="#ffc1c7"/>
    <path id="Path_22" data-name="Path 22" d="M752.357,388.013s-28.778,21.511-32.889,23.566-8.908,17.815-8.908,17.815,24.667-6.852,28.778-11.648S752.357,388.013,752.357,388.013Z" transform="translate(-206.326 -151.144)" opacity="0.1"/>
    <circle id="Ellipse_3" data-name="Ellipse 3" cx="18.5" cy="18.5" r="18.5" transform="translate(525.133 182.665)" fill="#ffc1c7"/>
    <path id="Path_23" data-name="Path 23" d="M724.153,478.584s-12.334,32.2-13.019,34.945-23.982,50.7-28.093,70.575-5.482,23.3-5.482,23.3,20.556,8.908,35.63,13.7,21.926,4.8,21.926,4.8-3.426-8.222,2.056-22.611,16.445-60.3,16.445-60.3,8.766-27.066,6.852-46.593a72.943,72.943,0,0,1-.164-15.152,5.926,5.926,0,0,0-6.277-6.616C743.862,475.329,727.418,476.718,724.153,478.584Z" transform="translate(-195.937 -178.408)" fill="#2f2e41"/>
    <path id="Path_24" data-name="Path 24" d="M779.707,367.2s-8.908-1.37-13.019.685-10.963,1.37-10.278,2.741,4.111,8.908,1.37,11.648-5.482,15.074-10.963,18.5-13.7,15.074-2.741,25.352c0,0,3.426,13.019,0,15.76s10.963-2.741,10.963-2.741a29.844,29.844,0,0,1,8.908,3.426c4.8,2.741,15.759,2.056,15.759,2.056s4.8-21.241,7.537-26.037S796.152,376.108,779.707,367.2Z" transform="translate(-215.176 -144.452)" fill="#6c63ff"/>
    <path id="Path_25" data-name="Path 25" d="M772.348,383.364s-15.76,2.741-5.482,18.5,19.186,37,19.186,37,2.056,3.426-4.8,6.167-33.575,15.76-33.575,15.76-17.815,2.741-17.13,4.111,7.537,0,7.537,0-4.8,13.019,3.426,13.019,12.334-8.222,12.334-8.222,44.538-15.759,47.278-17.815c.959-.719,1.583-2.278,1.988-4a20.31,20.31,0,0,0-.638-11.16C797.85,423.091,782.69,381.066,772.348,383.364Z" transform="translate(-212.613 -149.652)" fill="#ffc1c7"/>
    <path id="Path_26" data-name="Path 26" d="M774.873,312.778a15.074,15.074,0,1,0-19.941,19.941,15.074,15.074,0,1,0,19.94-19.94Z" transform="translate(-217.501 -124.667)" fill="#2f2e41"/>
    <ellipse id="Ellipse_4" data-name="Ellipse 4" cx="1.713" cy="4.454" rx="1.713" ry="4.454" transform="translate(536.781 203.221)" fill="#ffc1c7"/>
  </g>
</svg>
